<?xml version="1.0" encoding="UTF-8"?>
<svg id="Calque_1" data-name="Calque 1" xmlns="http://www.w3.org/2000/svg" viewBox="0 0 1000 1000">
  <defs>
    <style>
      .cls-1 {
        fill: #333;
      }

      .cls-1, .cls-2 {
        stroke-width: 0px;
      }

      .cls-2 {
        fill: #fff;
      }
    </style>
  </defs>
  <path class="cls-1" d="m500.03,998.41C223.48,996.6,1.94,776.35,1.99,499.88,2.05,223.46,223.74,1.83,500.28,1.99c276.43.16,497.96,221.89,497.72,498.48-.24,275.98-221.47,496.07-497.98,497.94Zm-226-229.4c-.44,35,13.72,54.4,42.29,63.18,22.29,6.85,44.84,6.98,67.38,1.76,26.81-6.21,53.52-12.87,80.26-19.39,36.28-8.85,71.5-7.05,105.34,10,4.66,2.35,9.65,4.1,14.56,5.92,13.84,5.11,28.08,8.92,42.92,7.69,31.27-2.6,54.87-18.85,72.99-43.49,3.56-4.85,5.47-11.48,6.45-17.57,3.79-23.7-2.21-46.09-11.18-67.69-19.15-46.12-48.09-86.09-79.66-124.27-14.81-17.92-31.41-34.1-50.71-47.25-42.07-28.66-85.72-31.96-130.02-6.04-14.4,8.43-28.37,18.49-40.29,30.11-45.43,44.28-80,96.36-106,154.11-8.29,18.42-13.91,37.71-14.32,52.93Zm258.22-438.95c.35,30.8,4.14,55.68,17.82,78.05,12.66,20.69,31.53,28.71,55.26,25.73,22.48-2.82,40.15-14.66,54.35-31.42,33.92-40.05,49.36-86.96,48.67-139.1-.28-21.16-4.81-41.68-15.87-60.19-15.01-25.1-40.41-35.15-68.02-26.89-16.36,4.89-29.93,14.36-41.33,26.77-34.29,37.33-49.09,82.25-50.86,127.06Zm-212.35-60.88c.43,32.3,7.14,64.38,21.27,94.74,9.7,20.86,22.2,39.74,41.8,52.77,29.79,19.81,65.41,12.34,84.24-18.06,5-8.07,9.06-17.05,11.83-26.14,11.66-38.27,10.01-76.81.5-115.23-6.65-26.83-17.13-51.93-36.49-72.33-35.39-37.31-87.94-28.95-110.26,17.42-9.99,20.76-12.66,42.99-12.88,66.83Zm519.97,221.55c-1.03-7.43-1.64-17.53-3.92-27.24-8.15-34.72-33.84-55.4-66.51-52.38-11.21,1.04-23.07,4.33-32.88,9.75-38.21,21.15-60.74,54.94-72.57,96.2-7.87,27.48-7.73,55.25,3.98,81.52,13.62,30.56,35.85,45.55,68.32,40.91,17.64-2.52,33.06-9.96,46.24-21.61,37.36-33.02,54.13-75.61,57.34-127.16Zm-679.18-38.03c.47,29.15,10.28,58.46,27.86,85.13,16.12,24.46,36.51,44.15,65.14,53.4,27.4,8.85,54.64,1.06,70.2-19.88,10.14-13.65,14.21-29.47,14.85-46.12,1.69-44.3-11.71-84.02-37.93-119.43-12.55-16.96-28.06-30.62-48.33-37.89-32.71-11.73-66.97,1.62-81.15,31.55-7.53,15.88-10.76,32.71-10.63,53.25Z"/>
  <path class="cls-2" d="m274.03,769c.42-15.23,6.03-34.52,14.32-52.93,26-57.75,60.57-109.83,106-154.11,11.92-11.62,25.89-21.68,40.29-30.11,44.3-25.92,87.95-22.62,130.02,6.04,19.3,13.15,35.9,29.33,50.71,47.25,31.57,38.19,60.51,78.15,79.66,124.27,8.97,21.6,14.96,43.99,11.18,67.69-.97,6.08-2.88,12.72-6.45,17.57-18.11,24.64-41.72,40.89-72.99,43.49-14.84,1.24-29.08-2.58-42.92-7.69-4.92-1.81-9.9-3.57-14.56-5.92-33.84-17.05-69.06-18.84-105.34-10-26.74,6.52-53.45,13.18-80.26,19.39-22.54,5.22-45.09,5.09-67.38-1.76-28.58-8.78-42.73-28.18-42.29-63.18Z"/>
  <path class="cls-2" d="m532.25,330.05c1.77-44.81,16.57-89.73,50.86-127.06,11.4-12.41,24.98-21.88,41.33-26.77,27.62-8.25,53.02,1.79,68.02,26.89,11.07,18.51,15.59,39.03,15.87,60.19.69,52.14-14.74,99.05-48.67,139.1-14.2,16.76-31.87,28.6-54.35,31.42-23.73,2.98-42.6-5.04-55.26-25.73-13.68-22.37-17.47-47.24-17.82-78.05Z"/>
  <path class="cls-2" d="m319.91,269.17c.22-23.85,2.89-46.08,12.88-66.83,22.32-46.36,74.87-54.72,110.26-17.42,19.35,20.4,29.84,45.49,36.49,72.33,9.52,38.41,11.16,76.96-.5,115.23-2.77,9.09-6.82,18.06-11.83,26.14-18.83,30.4-54.45,37.86-84.24,18.06-19.6-13.03-32.1-31.91-41.8-52.77-14.12-30.36-20.84-62.44-21.27-94.74Z"/>
  <path class="cls-2" d="m839.88,490.72c-3.21,51.55-19.98,94.14-57.34,127.16-13.18,11.65-28.6,19.09-46.24,21.61-32.48,4.64-54.7-10.35-68.32-40.91-11.71-26.28-11.86-54.04-3.98-81.52,11.82-41.26,34.36-75.05,72.57-96.2,9.81-5.43,21.66-8.71,32.88-9.75,32.67-3.03,58.37,17.66,66.51,52.38,2.28,9.71,2.89,19.82,3.92,27.24Z"/>
  <path class="cls-2" d="m160.7,452.69c-.13-20.54,3.11-37.36,10.63-53.25,14.18-29.93,48.44-43.28,81.15-31.55,20.27,7.27,35.78,20.93,48.33,37.89,26.22,35.42,39.62,75.13,37.93,119.43-.64,16.65-4.71,32.47-14.85,46.12-15.56,20.94-42.8,28.74-70.2,19.88-28.63-9.25-49.01-28.94-65.14-53.4-17.58-26.67-27.39-55.98-27.86-85.13Z"/>
</svg>